<svg fill="none" height="100%" viewBox="0 0 20 16" width="100%" xmlns="http://www.w3.org/2000/svg"><path d="M5 0L7.03488 1.29436C6.64729 1.77759 6.18217 2.46791 5.63953 3.36533C5.13566 4.26276 4.7093 5.26373 4.36047 6.36825C4.01163 7.43825 3.87597 8.491 3.95349 9.52648C4.22481 9.42293 4.45736 9.37116 4.65116 9.37116C4.84496 9.33664 5.03876 9.31938 5.23256 9.31938C6.20155 9.31938 7.03488 9.57826 7.73256 10.096C8.46899 10.6137 8.83721 11.3904 8.83721 12.4258C8.83721 13.4268 8.46899 14.2725 7.73256 14.9628C7.03488 15.6531 6.10465 15.9983 4.94186 15.9983C3.31395 16.0328 2.07364 15.5496 1.22093 14.5486C0.406977 13.5476 0 12.305 0 10.8208C0 9.78535 0.193798 8.64632 0.581395 7.40373C0.968992 6.16115 1.53101 4.9013 2.26744 3.6242C3.00388 2.3471 3.91473 1.13904 5 0ZM16.1628 0L18.1977 1.29436C17.8101 1.77759 17.345 2.46791 16.8023 3.36533C16.2985 4.26276 15.8721 5.26373 15.5233 6.36825C15.1744 7.43825 15.0388 8.491 15.1163 9.52648C15.3876 9.42293 15.6202 9.37116 15.814 9.37116C16.0078 9.33664 16.2016 9.31938 16.3953 9.31938C17.3643 9.31938 18.1977 9.57826 18.8953 10.096C19.6318 10.6137 20 11.3904 20 12.4258C20 13.4268 19.6318 14.2725 18.8953 14.9628C18.1977 15.6531 17.2674 15.9983 16.1047 15.9983C14.4767 16.0328 13.2364 15.5496 12.3837 14.5486C11.5698 13.5476 11.1628 12.305 11.1628 10.8208C11.1628 9.78535 11.3566 8.64632 11.7442 7.40373C12.1318 6.16115 12.6938 4.9013 13.4302 3.6242C14.1667 2.3471 15.0775 1.13904 16.1628 0Z" fill="currentColor"></path></svg>