<svg fill="none" height="31" viewBox="0 0 29 31" width="29" xmlns="http://www.w3.org/2000/svg"><path d="M29 25.6775C26.7976 28.05 23.8774 29.7381 20.6275 30.5175C17.3776 31.297 13.9516 31.1309 10.8047 30.0413C7.65784 28.9518 4.93894 26.9904 3.00918 24.4176C1.07942 21.8447 0.0301167 18.7823 0.000657317 15.6371C-0.0288021 12.4919 0.932314 9.36041 2.81359 6.75622C5.19183 3.55667 7.40726 2.19835 10.5332 1.05715C13.6592 -0.0840428 17.0816 -0.306512 20.3456 0.419295C23.6096 1.1451 26.5609 2.78484 28.8075 5.12069L23.8287 9.89052C22.5666 8.5782 20.4584 7.49544 18.6247 7.08768C16.7909 6.67991 14.5893 6.86497 13.1614 7.38625C11.4052 8.02739 9.89852 9.15433 8.8416 10.6174C7.78467 12.0805 7.31239 13.8367 7.32894 15.6037C7.34549 17.3707 7.96635 19.22 8.93426 20.5104C10.0184 21.9559 11.5459 23.0578 13.3139 23.6699C14.7701 24.2374 17.285 24.3086 18.8325 23.9375C20.6583 23.4996 22.5913 22.374 23.8287 21.0411L29 25.6775Z" fill="white"></path><path d="M21.4725 15.5563C21.4725 18.4508 19.1494 20.7972 16.2838 20.7972C13.4182 20.7972 11.0952 18.4508 11.0952 15.5563C11.0952 12.6618 13.4182 10.3153 16.2838 10.3153C19.1494 10.3153 21.4725 12.6618 21.4725 15.5563Z" fill="#FE3D2E"></path></svg>