<svg
  fill="none"
  height="18"
  viewBox="0 0 88 18"
  width="88"
  xmlns="http://www.w3.org/2000/svg"
>
  <path
    d="M39.1094 17.0813C38.2356 17.0813 37.3973 17.0813 36.5117 17.0813C36.5117 16.5263 36.5117 15.3455 36.5117 15.3455C36.5117 15.3455 36.4762 15.3692 36.4408 15.4046C36.4172 15.4518 36.3818 15.499 36.3463 15.5463C35.26 16.8924 33.8076 17.471 32.1308 17.4001C29.6039 17.2939 27.8209 15.995 26.8054 13.7042C25.9198 11.6968 26.0378 9.68943 27.0652 7.74109C28.1987 5.59202 30.5367 4.36398 32.9456 4.62376C34.3272 4.77727 35.4843 5.34406 36.37 6.43041C36.3936 6.45403 36.4054 6.47764 36.429 6.48945C36.4408 6.50126 36.4644 6.50125 36.5117 6.53667C36.5117 5.9935 36.5117 4.90716 36.5117 4.90716H39.1213C39.1094 4.90716 39.1094 13.0075 39.1094 17.0813ZM32.7212 7.09165C30.5603 7.05622 28.8954 8.68575 28.86 10.9057C28.8246 13.1492 30.4187 14.8496 32.615 14.885C34.8231 14.9204 36.4762 13.3027 36.5235 11.0592C36.5589 8.81564 34.953 7.13888 32.7212 7.09165Z"
    fill="currentColor"
  ></path>
  <path
    d="M81.6303 4.58793C78.0288 4.57612 75.2067 7.37464 75.1949 10.9643C75.1831 14.554 78.0052 17.3997 81.583 17.4116C85.1491 17.4234 87.983 14.5894 87.9949 11.0234C88.0067 7.42188 85.22 4.59974 81.6303 4.58793ZM81.583 14.8492C79.4694 14.8492 77.8163 13.137 77.8163 10.9761C77.8281 8.81525 79.493 7.13849 81.6066 7.13849C83.7203 7.1503 85.3617 8.83886 85.3498 10.9997C85.3617 13.1606 83.6849 14.861 81.583 14.8492Z"
    fill="currentColor"
  ></path>
  <path
    d="M44.8009 11.4959V17.0811H42.2031V0.0419922H44.8009V10.2678L44.86 10.2206L49.5005 4.90695H52.7006L47.3751 10.87L52.8895 17.0693H49.7603L44.8718 11.5313L44.8009 11.4959Z"
    fill="currentColor"
  ></path>
  <path
    d="M65.0517 17.0813C64.1897 17.0813 63.3395 17.0813 62.4775 17.0813C62.4775 16.5972 62.4775 16.113 62.4775 15.5935C62.4184 15.6407 62.383 15.6643 62.3594 15.688C61.6509 16.7153 60.6354 17.223 59.431 17.3765C58.3328 17.5064 57.2583 17.3647 56.2782 16.8097C55.3926 16.302 54.7904 15.5463 54.4243 14.6016C54.1528 13.8931 54.0465 13.1492 54.0347 12.3935C54.0347 9.67764 54.0347 4.91896 54.0347 4.91896H56.6679C56.6679 4.91896 56.6561 9.76029 56.6797 12.0038C56.6797 12.3935 56.7151 12.795 56.8214 13.1728C57.1048 14.2237 57.8369 14.7787 58.8878 14.9204C59.7262 15.0267 60.5173 14.9204 61.2258 14.4245C61.9579 13.9049 62.2885 13.1492 62.3948 12.2872C62.4421 11.9448 62.4657 11.6024 62.4657 11.2481C62.4775 9.25255 62.4657 4.91896 62.4657 4.91896H65.0517C65.0517 4.90715 65.0517 13.0075 65.0517 17.0813Z"
    fill="currentColor"
  ></path>
  <path
    d="M68.1455 4.90697H70.7197V6.90255C70.7197 6.90255 70.7433 6.87892 70.7669 6.8553C71.5345 5.33205 72.8097 4.70623 74.4511 4.68262C74.4511 5.63907 74.4511 6.5719 74.4511 7.50475C74.0023 7.51655 73.7426 7.54018 73.3883 7.59922C71.9123 7.82357 70.8968 8.8981 70.7669 10.3977C70.7433 10.6575 70.7315 10.9173 70.7315 11.1771C70.7315 13.0191 70.7315 17.0811 70.7315 17.0811H68.1455V4.90697Z"
    fill="currentColor"
  ></path>
  <path
    d="M23.995 8.03608C23.7234 6.83165 23.0857 5.8634 21.9994 5.22576C21.0784 4.68259 20.0747 4.54089 19.0237 4.61174C17.7485 4.70621 16.6739 5.2848 15.8946 6.27668C15.871 6.31211 15.8355 6.32392 15.7529 6.39477C15.7529 5.34384 15.7529 0.0419922 15.7529 0.0419922H13.1787V17.0811H15.7765C15.7765 17.0811 15.7765 12.7711 15.7765 10.811C15.7765 10.4686 15.7883 10.1143 15.8355 9.7719C15.989 8.62651 16.485 7.71726 17.6068 7.26855C18.2444 7.02058 18.9175 6.99697 19.5905 7.12686C20.5824 7.31579 21.3027 8.02429 21.4798 9.02798C21.5389 9.38222 21.5743 9.76009 21.5743 10.1261C21.5861 14.6723 21.5743 17.0811 21.5743 17.0811H24.1957C24.1957 17.0811 24.2075 12.0036 24.1839 9.58296C24.1839 9.0634 24.113 8.53202 23.995 8.03608Z"
    fill="currentColor"
  ></path>
  <path
    d="M8.6798 10.3741C7.92408 10.1143 6.47168 9.8309 5.25545 9.46484C3.63774 8.98071 3.8739 7.72905 4.46431 7.28034C5.23184 6.66632 7.41632 6.9143 9.90784 8.05969L10.6636 5.78072C9.73073 5.34382 7.3809 4.5881 5.53883 4.65895C2.11448 4.78884 1.21706 7.0796 1.34695 8.60285C1.42961 9.5593 1.8311 10.929 4.34623 11.6966C4.91302 11.8737 6.12924 12.1098 6.69603 12.287C7.18017 12.4405 8.71523 12.7357 8.47907 13.8575C8.25472 14.9674 6.83772 15.0147 6.32997 15.0147C4.61779 15.0147 2.53956 13.9637 1.78384 13.4087C1.45322 14.3534 0.921875 15.9121 0.921875 15.9121C0.921875 15.9121 3.47242 17.4117 6.55434 17.4117C9.73073 17.4117 11.1123 15.4161 11.1595 13.763C11.1949 12.8301 11.0178 11.2006 8.6798 10.3741Z"
    fill="currentColor"
  ></path>
</svg>
