<svg
  fill="none"
  height="32"
  viewBox="0 0 24 32"
  width="24"
  xmlns="http://www.w3.org/2000/svg"
>
  <g clip-path="url(#clip0_2264_6211)">
    <path
      d="M12 0L3.42637 7.17947C1.25583 8.99406 0 11.708 0 14.5641C0 18.8717 2.82172 22.6429 6.91474 23.7948L12.0155 25.2307V19.7869L8.26357 18.7455C4.94574 17.8145 4.03104 13.4753 6.6977 11.2505L12.0155 6.80077L12 0Z"
      fill="currentColor"
    ></path>
    <path
      d="M11.9999 32.0002L20.5735 24.8208C22.7441 23.0062 23.9999 20.2922 23.9999 17.4362C23.9999 13.1285 21.1782 9.3573 17.0852 8.20543L11.9844 6.76953V12.2133L15.7363 13.2547C19.0541 14.1857 19.9689 18.5249 17.3022 20.7498L11.9844 25.1995L11.9999 32.0002Z"
      fill="currentColor"
    ></path>
  </g>
  <defs>
    <clipPath id="clip0_2264_6211">
      <rect fill="white" height="32.0003" width="24.0004"></rect>
    </clipPath>
  </defs>
</svg>
