<svg fill="none" height="13" viewBox="0 0 14 13" width="14" xmlns="http://www.w3.org/2000/svg"><path d="M6.54543 0.993221C6.72364 0.604218 7.27636 0.604219 7.45457 0.993222L8.84945 4.03801C8.92226 4.19694 9.07279 4.3063 9.24644 4.32644L12.5732 4.71216C12.9983 4.76144 13.1691 5.2871 12.8542 5.5768L10.3895 7.8443C10.2608 7.96266 10.2033 8.13961 10.2378 8.31099L10.899 11.5942C10.9835 12.0136 10.5363 12.3385 10.1635 12.1285L7.24535 10.4851C7.09303 10.3994 6.90697 10.3994 6.75465 10.4851L3.83648 12.1285C3.46366 12.3385 3.0165 12.0136 3.10098 11.5942L3.76217 8.31098C3.79669 8.13961 3.73919 7.96266 3.61054 7.8443L1.14582 5.5768C0.830922 5.2871 1.00172 4.76144 1.42675 4.71216L4.75356 4.32644C4.92721 4.3063 5.07774 4.19694 5.15055 4.03801L6.54543 0.993221Z" fill="#F9CD32"></path></svg>